<svg id="Layer_1" data-name="Layer 1" xmlns="http://www.w3.org/2000/svg" xmlns:xlink="http://www.w3.org/1999/xlink" viewBox="0 0 95.1923 55"><defs><style>.cls-1{fill:none;}.cls-2{clip-path:url(#clip-path);}.cls-3{fill:#293439;}</style><clipPath id="clip-path"><rect id="Background" class="cls-1" x="-341.4038" y="166" width="600" height="766"/></clipPath></defs><title>Artboard 5</title><g class="cls-2"><image width="1600" height="1081" transform="translate(-845.4038 -45) scale(0.9056)" xlink:href="../../4 - Design/0 - Stock Images/andrew-kelly-356786-unsplash.jpg"/></g><path class="cls-3" d="M23.1319,14.8712l-2.6654-.3491V13.1577h8.44v1.3644l-3.1731.3491V35.0837L34.777,34.83l1.777-4.95,1.523.2539-1.174,6.6h-16.5V35.3692l2.7289-.2855Z"/><path class="cls-3" d="M51.3087,36.7337H40.7423l-.6663-1.2693q2.0941-3.966,4.8865-9.773t4.8866-10.5029h.7615l1.8721,1.0471L43.5981,33.4019,42.3923,35.274l8.9164-.4442V28.4837l2.2529-.19v6.4413l4.6961-.2221v2.2212H53.5616v5.1086H51.3087Z"/><path class="cls-3" d="M60.923,41.5567V40.0654a8.3711,8.3711,0,0,0,2.2528.2539,11.7054,11.7054,0,0,0,4.6486-.8409A6.9694,6.9694,0,0,0,70.8071,37.21a5.2015,5.2015,0,0,0,1.0312-3.11,4.4315,4.4315,0,0,0-1.3961-3.4745A6.4271,6.4271,0,0,0,66.1268,29.34a8.5082,8.5082,0,0,1-1.3962.3808l-.6663.19-.476-1.523a11.9428,11.9428,0,0,0,2.475-.73,8.8913,8.8913,0,0,0,3.3952-2.3164,4.7333,4.7333,0,0,0,1.3327-3.2048,3.2939,3.2939,0,0,0-1.1264-2.7764,4.6059,4.6059,0,0,0-2.9034-.8726,7.8608,7.8608,0,0,0-2.8082.5235,9.1193,9.1193,0,0,0-2.3956,1.3168L60.86,19.1866a10.2948,10.2948,0,0,1,6.5683-2.5385,7.541,7.541,0,0,1,4.49,1.2375,4.3671,4.3671,0,0,1,1.7293,3.8077,5.29,5.29,0,0,1-.8567,2.8558,9.0922,9.0922,0,0,1-2.2053,2.3956,10.4535,10.4535,0,0,1-2.8717,1.5707,8.57,8.57,0,0,1,.8568-.0317,7.2606,7.2606,0,0,1,3.3158.7139,5.2473,5.2473,0,0,1,2.1577,1.92,4.916,4.916,0,0,1,.7457,2.6337A6.7479,6.7479,0,0,1,73.3931,37.94a9.0956,9.0956,0,0,1-3.9346,2.8716,15.5173,15.5173,0,0,1-5.87,1.0312A11.5683,11.5683,0,0,1,60.923,41.5567Z"/><path class="cls-3" d="M95.1923,55H0V0H95.1923ZM1.5865,53.4135H93.6058V1.5865H1.5865Z"/></svg>